# xmcd
#
# Track frame offsets: 
#        150
#        1025
#        22125
#        23200
#        43400
#        61375
#        81062
#        94362
#        112900
#        131112
#        132462
#        148962
#        169325
#
# Disc length: 2491 seconds
#
# Revision: 3
# Processed by: cddbd v1.5.2PL0 Copyright (c) Steve Scherf et al.
# Submitted via: ExactAudioCopyFreeDBPlugin 1.0
#
DISCID=bb09b90d
DTITLE=David Tao - David Tao
DYEAR=1998
DGENRE=R&B
TTITLE0=AIPPORT TAKE OFF
TTITLE1=Airport arrival 10:30
TTITLE2=AIPORT ARRIVAL
TTITLE3=I love you
TTITLE4=Blue moon
TTITLE5=Our love
TTITLE6=Sping wind
TTITLE7=Yes no song
TTITLE8=Everything's gone
TTITLE9=TAKE 6 MINUS 3
TTITLE10=Do I do I
TTITLE11=Say goodbye
TTITLE12=Suite blue moon
EXTD=YEAR: 1998
EXTT0=
EXTT1=
EXTT2=
EXTT3=
EXTT4=
EXTT5=
EXTT6=
EXTT7=
EXTT8=
EXTT9=
EXTT10=
EXTT11=
EXTT12=
PLAYORDER=
